<svg xmlns="http://www.w3.org/2000/svg" width="31.778" height="26" viewBox="0 0 31.778 26">
  <path id="ic_flip_24px" d="M20.333,29.889h2.889V27H20.333Zm5.778-17.333H29V9.667H26.111ZM3,6.778V27a2.9,2.9,0,0,0,2.889,2.889h5.778V27H5.889V6.778h5.778V3.889H5.889A2.9,2.9,0,0,0,3,6.778ZM26.111,3.889V6.778H29A2.9,2.9,0,0,0,26.111,3.889ZM14.556,32.778h2.889V1H14.556Zm11.556-8.667H29V21.222H26.111ZM20.333,6.778h2.889V3.889H20.333Zm5.778,11.556H29V15.444H26.111Zm0,11.556A2.9,2.9,0,0,0,29,27H26.111Z" transform="translate(32.778 -3) rotate(90)" fill="#fff"/>
</svg>
